<svg width="103" height="24" viewBox="0 0 103 24" fill="none" xmlns="http://www.w3.org/2000/svg">
<path d="M37.434 7.485C37.265 7.03 36.94 6.705 36.498 6.705H36.095C35.705 6.705 35.354 7.056 35.198 7.485L32.468 15.077C32.429 15.181 32.416 15.272 32.416 15.363C32.416 15.805 32.819 16.078 33.183 16.078C33.456 16.078 33.755 15.922 33.872 15.558L34.47 13.777H38.11L38.708 15.545C38.825 15.909 39.124 16.078 39.41 16.078C39.8 16.078 40.229 15.766 40.229 15.311C40.229 15.233 40.216 15.142 40.177 15.038L37.434 7.485ZM34.899 12.516C35.952 9.344 36.199 8.421 36.264 7.784C36.342 8.447 36.628 9.37 37.681 12.516H34.899ZM47.0282 9.188C46.6512 9.188 46.2742 9.435 46.2742 9.929V12.906C46.2612 14.18 45.5592 14.869 44.5062 14.869C43.6612 14.869 42.8422 14.414 42.8422 12.984V9.955C42.8422 9.448 42.4652 9.188 42.0882 9.188C41.7112 9.188 41.3342 9.448 41.3342 9.955V13.205C41.3342 15.272 42.6342 16.143 44.0512 16.143C45.1042 16.143 45.8452 15.688 46.2742 14.921V15.324C46.2742 15.805 46.6512 16.065 47.0282 16.065C47.4052 16.065 47.7822 15.805 47.7822 15.324V9.929C47.7822 9.435 47.4052 9.188 47.0282 9.188ZM51.4927 9.253V7.966C51.4927 7.472 51.1157 7.225 50.7517 7.225C50.3877 7.225 49.9977 7.472 49.9977 7.966V9.253H49.4647C49.1527 9.253 48.8797 9.526 48.8797 9.838C48.8797 10.163 49.1527 10.423 49.4647 10.423H49.9977V15.324C49.9977 15.818 50.3877 16.078 50.7517 16.078C51.1157 16.078 51.4927 15.818 51.4927 15.324V10.423H52.4677C52.7797 10.423 53.0527 10.163 53.0527 9.838C53.0527 9.513 52.7797 9.253 52.4677 9.253H51.4927ZM57.0534 16.13C59.1334 16.13 60.6674 14.648 60.6674 12.62C60.6674 10.605 59.1334 9.11 57.0534 9.11C54.9734 9.11 53.4394 10.605 53.4394 12.62C53.4394 14.648 54.9734 16.13 57.0534 16.13ZM57.0534 14.791C55.8184 14.791 54.8824 13.855 54.8824 12.62C54.8824 11.385 55.8184 10.449 57.0534 10.449C58.3014 10.449 59.2244 11.385 59.2244 12.62C59.2244 13.855 58.3014 14.791 57.0534 14.791ZM64.3867 16.13C65.9987 16.13 67.1427 15.402 67.1427 14.063C67.1427 11.554 63.0997 12.334 63.0997 11.008C63.0997 10.54 63.6067 10.254 64.2177 10.254C64.7767 10.254 65.2447 10.514 65.6347 10.943C65.8557 11.19 66.0767 11.281 66.2717 11.281C66.5967 11.281 66.8437 10.995 66.8437 10.657C66.8437 10.488 66.7917 10.293 66.6487 10.124C66.1677 9.513 65.2057 9.123 64.2307 9.123C62.8137 9.123 61.6567 9.864 61.6567 11.138C61.6567 13.53 65.6477 12.815 65.6477 14.154C65.6477 14.661 65.1537 14.96 64.3997 14.96C63.6847 14.96 63.2297 14.674 62.8657 14.128C62.6967 13.868 62.4887 13.764 62.2807 13.764C61.9167 13.764 61.5787 14.089 61.5787 14.479C61.5787 14.635 61.6307 14.791 61.7477 14.96C62.2677 15.688 63.1387 16.13 64.3867 16.13ZM74.5418 9.201C74.1648 9.201 73.7878 9.448 73.7878 9.942V10.475C73.2808 9.604 72.3188 9.11 71.3178 9.11C69.2508 9.11 67.9248 10.605 67.9248 12.607C67.9248 14.557 69.1988 16.13 71.2398 16.13C72.4618 16.13 73.4108 15.545 73.7878 14.622V15.337C73.7878 15.818 74.1648 16.078 74.5418 16.078C74.9188 16.078 75.2828 15.818 75.2828 15.337V9.942C75.2828 9.448 74.9058 9.201 74.5418 9.201ZM71.6168 14.791C70.3428 14.791 69.4328 13.894 69.4328 12.62C69.4328 11.359 70.3428 10.462 71.6168 10.462C72.8778 10.462 73.7748 11.398 73.7748 12.62C73.7748 13.855 72.8778 14.791 71.6168 14.791ZM79.5624 16.065C80.0434 16.065 80.4074 15.792 80.5764 15.376L82.6304 10.176C82.6694 10.072 82.6824 9.981 82.6824 9.89C82.6824 9.461 82.2664 9.188 81.9024 9.188C81.6294 9.188 81.3434 9.344 81.2264 9.682C80.0044 13.01 79.7704 13.712 79.5754 14.531C79.3414 13.764 79.0944 13.036 77.8464 9.682C77.7164 9.331 77.4564 9.188 77.1704 9.188C76.7804 9.188 76.3774 9.474 76.3774 9.903C76.3774 10.007 76.4034 10.111 76.4424 10.215L78.5614 15.389C78.7304 15.792 79.0944 16.065 79.5624 16.065ZM84.5181 8.408C84.9991 8.408 85.3891 8.018 85.3891 7.537C85.3891 7.056 84.9991 6.653 84.5181 6.653C84.0371 6.653 83.6341 7.043 83.6341 7.537C83.6341 8.018 84.0371 8.408 84.5181 8.408ZM83.7641 15.324C83.7641 15.818 84.1541 16.078 84.5181 16.078C84.8821 16.078 85.2591 15.818 85.2591 15.324V9.929C85.2591 9.435 84.8821 9.188 84.5181 9.188C84.1411 9.188 83.7641 9.435 83.7641 9.929V15.324ZM90.5163 9.11C89.4763 9.11 88.7353 9.565 88.3063 10.332V9.929C88.3063 9.435 87.9293 9.188 87.5523 9.188C87.1753 9.188 86.7983 9.435 86.7983 9.929V15.324C86.7983 15.805 87.1753 16.065 87.5523 16.065C87.9293 16.065 88.3063 15.805 88.3063 15.324V12.347C88.3193 11.073 89.0213 10.397 90.0743 10.397C90.9193 10.397 91.7383 10.839 91.7383 12.269V15.298C91.7383 15.805 92.1153 16.078 92.4923 16.078C92.8693 16.078 93.2463 15.805 93.2463 15.298V12.048C93.2463 9.981 91.9463 9.11 90.5163 9.11ZM100.961 9.188C100.584 9.188 100.207 9.448 100.207 9.968V10.475C99.6997 9.604 98.7377 9.11 97.7367 9.11C95.6697 9.11 94.3437 10.605 94.3437 12.607C94.3437 14.557 95.6177 16.13 97.6587 16.13C98.8807 16.13 99.8297 15.545 100.207 14.622V15.35C100.207 16.988 99.4137 17.885 97.8667 17.885C96.6577 17.885 96.0207 17.339 95.6047 17.339C95.2407 17.339 95.0197 17.599 95.0197 17.898C95.0197 18.132 95.1497 18.379 95.4357 18.548C96.0597 18.912 97.0087 19.185 97.9707 19.185C100.272 19.185 101.689 17.755 101.689 15.35V9.929C101.689 9.435 101.325 9.188 100.961 9.188ZM98.0357 14.791C96.7617 14.791 95.8517 13.894 95.8517 12.62C95.8517 11.359 96.7617 10.462 98.0357 10.462C99.2967 10.462 100.194 11.398 100.194 12.62C100.194 13.855 99.2967 14.791 98.0357 14.791Z" fill="#002348" fill-opacity="0.3"/>
<path fill-rule="evenodd" clip-rule="evenodd" d="M13.982 5.3272C15.0394 5.1659 16.1199 5.25817 17.1345 5.59639C18.1492 5.93461 19.069 6.50911 19.818 7.27254C20.5671 8.03596 21.1241 8.96647 21.443 9.98737C21.7619 11.0083 21.8336 12.0903 21.6523 13.1444C21.4709 14.1985 21.0417 15.1944 20.4 16.05C20.1515 16.3814 20.2186 16.8515 20.55 17.1C20.8814 17.3485 21.3515 17.2814 21.6 16.95C22.3843 15.9042 22.9089 14.687 23.1306 13.3987C23.3522 12.1104 23.2645 10.7879 22.8747 9.54012C22.485 8.29235 21.8043 7.15507 20.8887 6.22199C19.9732 5.28891 18.849 4.58675 17.6089 4.17336C16.3687 3.75998 15.0481 3.64722 13.7558 3.84436C12.4636 4.0415 11.2366 4.5429 10.1761 5.30725C9.11566 6.0716 8.252 7.07702 7.65632 8.24064C7.64422 8.26427 7.63223 8.28796 7.62037 8.31171C7.33234 8.27056 7.04148 8.2499 6.75 8.25L7.29648 9.04733L7.29642 9.04747L6.74972 8.25C5.15852 8.25007 3.63251 8.88221 2.50736 10.0074C1.38214 11.1326 0.75 12.6587 0.75 14.25C0.75 15.8413 1.38214 17.3674 2.50736 18.4926C3.63258 19.6179 5.1587 20.25 6.75 20.25H9C9.41421 20.25 9.75 19.9142 9.75 19.5C9.75 19.0858 9.41421 18.75 9 18.75H6.75C5.55653 18.75 4.41193 18.2759 3.56802 17.432C2.72411 16.5881 2.25 15.4435 2.25 14.25C2.25 13.0565 2.72411 11.9119 3.56802 11.068C4.41193 10.2241 5.55653 9.75 6.75 9.75H6.75028C6.85364 9.74996 6.95688 9.75338 7.05986 9.76022C6.85496 10.4866 6.75 11.2401 6.75 12C6.75 12.4142 7.08579 12.75 7.5 12.75C7.91421 12.75 8.25 12.4142 8.25 12C8.25 10.9305 8.50416 9.87621 8.99153 8.92416C9.47891 7.9721 10.1855 7.14949 11.0532 6.52412C11.9209 5.89874 12.9247 5.4885 13.982 5.3272ZM14.2532 11.25C14.4461 11.2492 14.6393 11.3224 14.7866 11.4697L17.9647 14.6478C18.2576 14.9407 18.2576 15.4156 17.9647 15.7085C17.6718 16.0013 17.1969 16.0013 16.904 15.7085L15 13.8044V19.5C15 19.9142 14.6642 20.25 14.25 20.25C13.8358 20.25 13.5 19.9142 13.5 19.5V13.8169L11.6085 15.7085C11.3156 16.0013 10.8407 16.0013 10.5478 15.7085C10.2549 15.4156 10.2549 14.9407 10.5478 14.6478L13.6651 11.5305C13.8026 11.3594 14.0135 11.25 14.25 11.25C14.2511 11.25 14.2521 11.25 14.2532 11.25Z" fill="#002348" fill-opacity="0.3"/>
</svg>
