<svg width="168" height="168" viewBox="0 0 168 168" fill="none" xmlns="http://www.w3.org/2000/svg">
<path opacity="0.47" d="M14 80.7125C32.2661 59.7949 55.7211 41.6244 79.8561 27.9359C94.0358 19.8937 118.041 7.6144 125.596 11.8734C128.876 13.8595 134.81 19.8526 132.303 27.9359C123.327 61.7354 100.554 89.4876 84.6749 120.18C80.6443 127.971 76.5497 136.116 74.349 144.656C72.0447 153.599 79.3335 150.485 84.8278 147.181C100.783 137.585 113.559 122.746 126.743 109.778C136.439 100.241 127.718 122.892 126.896 125.535C124.663 132.714 118.47 147.97 124.602 154.906C129.655 160.622 138.942 156.793 144.794 155.059" stroke="#312E6F" stroke-width="6.97252" stroke-linecap="round"/>
<path opacity="0.47" d="M140.922 80.2329C144.304 77.3712 145.567 74.0014 147.182 70.0195" stroke="#312E6F" stroke-width="6.97252" stroke-linecap="round"/>
<path opacity="0.47" d="M140.922 100C143.053 100.103 145.04 100.241 147.054 101.043C149.747 102.116 151.466 103.97 153.771 105.601" stroke="#312E6F" stroke-width="6.97252" stroke-linecap="round"/>
<path opacity="0.47" d="M48.6228 89.8654C48.6228 92.4882 48.2886 94.6762 49.448 96.9951C50.0954 98.2899 52.3155 99.6687 53.805 99.6687C55.3067 99.6687 57.672 100.112 59.0203 99.4376C60.7835 98.556 61.0532 97.3307 62.123 95.9553C62.6602 95.2646 62.5561 91.6023 62.123 90.9217C61.5505 90.0221 59.5535 87.2581 58.4261 87.1918C56.6914 87.0898 55.0474 86.5977 53.2109 86.5977C50.7173 86.5977 49.514 87.9633 49.514 90.4596" stroke="#312E6F" stroke-width="6.97252" stroke-linecap="round"/>
</svg>
