<svg width="32" height="32" viewBox="0 0 32 32" fill="none" xmlns="http://www.w3.org/2000/svg">
<path d="M10 25H22" stroke="#7C7C7C" stroke-width="1.5" stroke-linecap="round" stroke-linejoin="round"/>
<path d="M16 17C17.6569 17 19 15.6569 19 14C19 12.3431 17.6569 11 16 11C14.3431 11 13 12.3431 13 14C13 15.6569 14.3431 17 16 17Z" stroke="#7C7C7C" stroke-width="1.5" stroke-linecap="round" stroke-linejoin="round"/>
<path d="M23 13.9231C23 20.1538 16 25 16 25C16 25 9 20.1538 9 13.9231C9 12.087 9.7375 10.3261 11.0503 9.02772C12.363 7.72939 14.1435 7 16 7C17.8565 7 19.637 7.72939 20.9497 9.02772C22.2625 10.3261 23 12.087 23 13.9231V13.9231Z" stroke="#7C7C7C" stroke-width="1.5" stroke-linecap="round" stroke-linejoin="round"/>
</svg>
