<svg width="28" height="28" viewBox="0 0 28 28" fill="none" xmlns="http://www.w3.org/2000/svg">
<circle cx="14" cy="14" r="14" fill="#D58FC8"/>
<mask id="mask0_764_2" style="mask-type:alpha" maskUnits="userSpaceOnUse" x="0" y="0" width="28" height="28">
<circle cx="14" cy="14" r="14" fill="#D58FC8"/>
</mask>
<g mask="url(#mask0_764_2)">
<circle cx="14" cy="12.25" r="6.125" fill="#FFC5F4"/>
<mask id="mask1_764_2" style="mask-type:alpha" maskUnits="userSpaceOnUse" x="7" y="6" width="14" height="13">
<circle cx="14" cy="12.25" r="6.125" fill="#FFC5F4"/>
</mask>
<g mask="url(#mask1_764_2)">
<path d="M16.1875 17.9375C8.99234 19.4785 7.4375 9.625 10.9361 7.00083C11.0824 6.855 11.025 6.38833 9.625 5.68833C8.225 4.98833 6.125 10.355 5.25 13.1258V21.0008C12.1037 19.98 23.9415 16.2768 16.1875 17.9375Z" fill="#B63C9F"/>
</g>
<ellipse cx="14" cy="28.4375" rx="10.5" ry="8.3125" fill="#FC99C9"/>
<mask id="mask2_764_2" style="mask-type:alpha" maskUnits="userSpaceOnUse" x="3" y="20" width="22" height="17">
<ellipse cx="14" cy="28.4375" rx="10.5" ry="8.3125" fill="#FC99C9"/>
</mask>
<g mask="url(#mask2_764_2)">
<path d="M17.0637 30.6246C6.91369 28.8746 9.62619 22.8954 12.2512 20.1246C12.3966 19.9787 12.25 19.3371 10.5 17.9371C8.82168 16.5944 4.3266 20.778 2.03162 23.3098C1.8517 23.5083 1.77796 23.7784 1.82588 24.0419L3.36714 32.5189C3.44377 32.9403 3.81263 33.2445 4.24093 33.2361C13.0602 33.0626 26.9325 32.3261 17.0637 30.6246Z" fill="#B63C9F"/>
</g>
</g>
<rect x="14" y="9.1377" width="0.875" height="1.75" rx="0.4375" fill="#B63C9F"/>
<rect x="17.5" y="9.50977" width="0.875" height="1.75" rx="0.4375" fill="#B63C9F"/>
</svg>
