<svg width="24" height="24" viewBox="0 0 24 24" fill="none" xmlns="http://www.w3.org/2000/svg">
<circle cx="12" cy="12" r="12" fill="#0152A8" fill-opacity="0.12"/>
<path d="M16.9802 13.3999C16.9802 16.3134 12.7712 17.3147 12.0923 17.4561C12.0325 17.4674 11.9711 17.4674 11.9113 17.4561C11.2324 17.3147 7.02344 16.3134 7.02344 13.3999V10.0961C7.02297 10.0029 7.05162 9.91196 7.10537 9.83589C7.15913 9.75982 7.23531 9.70245 7.32328 9.67179L11.8491 8.02554C11.948 7.99149 12.0556 7.99149 12.1545 8.02554L16.6803 9.67179C16.7683 9.70245 16.8445 9.75982 16.8982 9.83589C16.952 9.91196 16.9806 10.0029 16.9802 10.0961V13.3999Z" stroke="#0152A8" stroke-width="1.20687" stroke-linecap="round" stroke-linejoin="round"/>
<path d="M9.73828 12.043H14.2641" stroke="#0152A8" stroke-width="1.20687" stroke-linecap="round" stroke-linejoin="round"/>
<path d="M9.73828 13.8525H14.2641" stroke="#0152A8" stroke-width="1.20687" stroke-linecap="round" stroke-linejoin="round"/>
<path d="M17 14H17.9191C18.1927 14.0007 18.4638 13.9667 18.7168 13.9C18.9697 13.8332 19.1996 13.7351 19.3931 13.6111C19.5865 13.4871 19.7397 13.3399 19.8439 13.1778C19.9481 13.0157 20.0011 12.842 20 12.6667V11.3333C20.0011 11.158 19.9481 10.9843 19.8439 10.8222C19.7397 10.6601 19.5865 10.5129 19.3931 10.3889C19.1996 10.2649 18.9697 10.1668 18.7168 10.1C18.4638 10.0333 18.1927 9.99928 17.9191 10H17.2254" stroke="#0152A8" stroke-width="1.20687" stroke-linecap="round" stroke-linejoin="round"/>
<path d="M7 14H6.08093C5.80734 14.0007 5.53623 13.9667 5.28324 13.9C5.03026 13.8332 4.80041 13.7351 4.60695 13.6111C4.41349 13.4871 4.26025 13.3399 4.15608 13.1778C4.05191 13.0157 3.99887 12.842 4.00002 12.6667V11.3333C3.99887 11.158 4.05191 10.9843 4.15608 10.8222C4.26025 10.6601 4.41349 10.5129 4.60695 10.3889C4.80041 10.2649 5.03026 10.1668 5.28324 10.1C5.53623 10.0333 5.80734 9.99928 6.08093 10H6.77457" stroke="#0152A8" stroke-width="1.20687" stroke-linecap="round" stroke-linejoin="round"/>
</svg>
