<svg width="194" height="49" viewBox="0 0 194 49" fill="none" xmlns="http://www.w3.org/2000/svg">
<path fill-rule="evenodd" clip-rule="evenodd" d="M53.6692 4.05202C56.4525 8.23053 55.3215 13.8742 51.1429 16.6575C50.6303 16.999 50.0955 17.2815 49.5467 17.5068C46.4656 13.7771 41.994 11.4768 37.2316 11.0858C36.431 7.52065 37.841 3.67244 41.0637 1.52575C45.2422 -1.25754 50.8859 -0.126495 53.6692 4.05202ZM46.7609 9.78665C48.6724 8.51343 49.1898 5.93173 47.9166 4.02027C46.6433 2.1088 44.0616 1.59141 42.1502 2.86463C40.2387 4.13785 39.7213 6.71955 40.9945 8.63101C42.2678 10.5425 44.8495 11.0599 46.7609 9.78665Z" fill="white"/>
<path fill-rule="evenodd" clip-rule="evenodd" d="M10.7237 32.0158C12.8624 35.2265 16.3493 37.0008 19.9337 37.0881C19.6539 36.546 19.3991 35.9843 19.1714 35.4041C18.1435 32.7855 17.7769 30.0707 17.9911 27.444C16.3618 27.3952 14.7799 26.5844 13.8074 25.1245C12.2125 22.7301 12.8606 19.4962 15.255 17.9013C17.216 16.5951 19.7402 16.7934 21.4658 18.2233C22.3114 17.0849 23.2972 16.0411 24.4104 15.1211C21.054 13.7894 17.121 14.0723 13.8882 16.2257C8.65405 19.7121 7.23725 26.7816 10.7237 32.0158ZM21.2543 34.5864C21.5715 35.3943 21.9485 36.161 22.3783 36.8832L22.3796 36.883C21.9498 36.1608 21.5728 35.3942 21.2557 34.5863C20.2729 32.0826 19.9814 29.4782 20.289 26.984L20.2886 26.9842C20.5941 24.5072 21.4906 22.1389 22.8879 20.0856L22.8881 20.086C23.8785 18.6305 25.1207 17.3334 26.5824 16.2681L26.5818 16.2677C20.9809 20.349 18.6037 27.8338 21.2543 34.5864Z" fill="white"/>
<path fill-rule="evenodd" clip-rule="evenodd" d="M41.5002 43.4134C49.5263 40.2629 53.4787 31.2025 50.3283 23.1764C47.1778 15.1504 38.1174 11.1979 30.0913 14.3484C22.0652 17.4989 18.1128 26.5593 21.2633 34.5854C24.4138 42.6115 33.4742 46.5639 41.5002 43.4134ZM36.6497 30.2878C40.3213 28.8466 42.1293 24.7019 40.6881 21.0304C39.2469 17.3588 35.1022 15.5508 31.4307 16.992C27.7592 18.4332 25.9511 22.5779 27.3923 26.2494C28.8335 29.9209 32.9782 31.729 36.6497 30.2878Z" fill="white"/>
<path d="M79.9871 35.6195C80.8912 35.6195 81.6035 34.8798 81.6035 34.0031V18.9076H85.576C86.3705 18.9076 87.028 18.2501 87.028 17.4556C87.028 16.6611 86.3705 16.0036 85.576 16.0036H74.4257C73.6312 16.0036 72.9737 16.6611 72.9737 17.4556C72.9737 18.2501 73.6312 18.9076 74.4257 18.9076H78.3981V34.0031C78.3981 34.8798 79.1105 35.6195 79.9871 35.6195ZM99.2534 27.5649C98.8151 23.5102 96.0481 20.935 92.0482 20.935C87.8017 20.935 84.7881 24.1404 84.7881 28.3594C84.7881 32.7976 87.9387 35.729 92.2674 35.729C94.87 35.729 96.7878 34.4688 97.9658 33.0168C98.2124 32.7154 98.322 32.4141 98.322 32.1127C98.322 31.373 97.6645 30.7155 96.9795 30.7155C96.6234 30.7155 96.2398 30.8799 95.9385 31.2908C95.144 32.3593 93.9933 33.1264 92.2948 33.1264C89.9387 33.1264 87.9661 31.5374 87.8839 29.2361H97.7192C98.7877 29.2361 99.363 28.6608 99.2534 27.5649ZM92.0482 23.4828C94.4043 23.4828 96.0481 25.0444 96.2124 27.1266H87.9113C88.0757 25.017 89.7743 23.4828 92.0482 23.4828ZM106.261 35.729C109.658 35.729 112.069 34.1948 112.069 31.373C112.069 26.0855 103.548 27.7293 103.548 24.9349C103.548 23.9486 104.617 23.3459 105.905 23.3459C107.083 23.3459 108.069 23.8938 108.891 24.7979C109.357 25.3184 109.822 25.5102 110.233 25.5102C110.918 25.5102 111.439 24.9075 111.439 24.1952C111.439 23.839 111.329 23.4281 111.028 23.0719C110.014 21.7843 107.987 20.9624 105.932 20.9624C102.946 20.9624 100.507 22.524 100.507 25.2088C100.507 30.2498 108.918 28.743 108.918 31.5648C108.918 32.6332 107.877 33.2634 106.288 33.2634C104.781 33.2634 103.822 32.6606 103.055 31.51C102.699 30.9621 102.261 30.7429 101.823 30.7429C101.055 30.7429 100.343 31.4278 100.343 32.2497C100.343 32.5785 100.453 32.9072 100.699 33.2634C101.795 34.7976 103.631 35.729 106.261 35.729ZM118.21 21.2363V18.5241C118.21 17.483 117.416 16.9625 116.648 16.9625C115.881 16.9625 115.059 17.483 115.059 18.5241V21.2363H113.936C113.279 21.2363 112.703 21.8117 112.703 22.4692C112.703 23.1541 113.279 23.702 113.936 23.702H115.059V34.0305C115.059 35.0715 115.881 35.6195 116.648 35.6195C117.416 35.6195 118.21 35.0715 118.21 34.0305V23.702H120.265C120.922 23.702 121.498 23.1541 121.498 22.4692C121.498 21.7843 120.922 21.2363 120.265 21.2363H118.21ZM137.198 34.5784C137.801 34.2496 138.048 33.7017 138.048 33.2086C138.048 32.5237 137.609 31.9209 136.87 31.9209C136.678 31.9209 136.459 31.9483 136.212 32.0579C135.089 32.5237 133.856 32.7702 132.651 32.7702C129.089 32.7702 125.664 30.6333 125.664 25.7294C125.664 20.7706 129.089 18.7159 132.623 18.7159C133.856 18.7159 135.116 18.9624 136.239 19.4282C136.486 19.5378 136.705 19.5652 136.897 19.5652C137.637 19.5652 138.075 18.9624 138.075 18.2775C138.075 17.757 137.828 17.2091 137.253 16.9077C135.883 16.1954 134.212 15.8119 132.459 15.8119C127.664 15.8119 122.459 18.7433 122.459 25.7294C122.459 32.688 127.664 35.7016 132.459 35.7016C134.185 35.7016 135.856 35.3181 137.198 34.5784ZM147.811 20.935C145.592 20.935 144.03 21.8939 143.126 23.565V16.3324C143.126 15.2913 142.359 14.7434 141.564 14.7434C140.797 14.7434 140.003 15.2913 140.003 16.3324V34.0305C140.003 35.0715 140.797 35.6195 141.564 35.6195C142.359 35.6195 143.126 35.0715 143.126 34.0305V27.7567C143.153 25.1814 144.578 23.6472 146.879 23.6472C148.633 23.6472 150.386 24.5513 150.386 27.5923V33.9757C150.386 35.0441 151.181 35.6195 151.975 35.6195C152.77 35.6195 153.564 35.0441 153.564 33.9757V27.1266C153.564 22.7979 150.824 20.935 147.811 20.935ZM157.384 19.4556C158.398 19.4556 159.22 18.6337 159.22 17.62C159.22 16.6064 158.398 15.7571 157.384 15.7571C156.371 15.7571 155.521 16.579 155.521 17.62C155.521 18.6337 156.371 19.4556 157.384 19.4556ZM155.795 34.0305C155.795 35.0715 156.617 35.6195 157.384 35.6195C158.151 35.6195 158.946 35.0715 158.946 34.0305V22.661C158.946 21.6199 158.151 21.0994 157.384 21.0994C156.59 21.0994 155.795 21.6199 155.795 22.661V34.0305ZM175.093 27.5649C174.655 23.5102 171.888 20.935 167.888 20.935C163.642 20.935 160.628 24.1404 160.628 28.3594C160.628 32.7976 163.779 35.729 168.107 35.729C170.71 35.729 172.628 34.4688 173.806 33.0168C174.052 32.7154 174.162 32.4141 174.162 32.1127C174.162 31.373 173.504 30.7155 172.819 30.7155C172.463 30.7155 172.08 30.8799 171.778 31.2908C170.984 32.3593 169.833 33.1264 168.135 33.1264C165.779 33.1264 163.806 31.5374 163.724 29.2361H173.559C174.628 29.2361 175.203 28.6608 175.093 27.5649ZM167.888 23.4828C170.244 23.4828 171.888 25.0444 172.052 27.1266H163.751C163.916 25.017 165.614 23.4828 167.888 23.4828ZM180.684 21.2363V20.0309C180.52 17.8666 181.534 17.3187 183.314 17.4282C184.218 17.483 184.712 16.8255 184.712 16.1406C184.712 15.5653 184.328 14.99 183.534 14.853C183.095 14.7708 182.657 14.7434 182.246 14.7434C179.698 14.7434 177.534 16.0858 177.534 19.5926V21.2363H176.931C176.274 21.2363 175.698 21.8117 175.698 22.4692C175.698 23.1541 176.274 23.702 176.931 23.702H177.534V34.0305C177.534 34.8798 178.246 35.6195 179.095 35.6195C179.972 35.6195 180.684 34.8798 180.684 34.0305V23.702H183.314C183.972 23.702 184.547 23.1541 184.547 22.4692C184.547 21.7843 183.972 21.2363 183.314 21.2363H180.684Z" fill="white"/>
</svg>
