<svg width="132" height="48" viewBox="0 0 132 48" fill="none" xmlns="http://www.w3.org/2000/svg">
<path d="M7.65219 33.5678H11.6584C12.075 33.5678 12.3556 33.4419 12.4041 33.1901L12.4162 33.1272C12.5312 32.5292 11.2874 32.4977 11.5053 31.3647L15.1201 12.5758H19.543C21.1454 12.5758 20.9081 15.9748 21.8376 15.9748H22.1581C22.4465 15.9748 22.6751 15.7859 22.6577 15.3768L22.6187 11.9148C22.6073 11.4742 22.4314 11.2224 21.9186 11.2224H5.98998C5.47719 11.2224 5.20441 11.4742 5.05554 11.9148L3.88276 15.3453C3.73389 15.7859 3.85781 15.9748 4.1783 15.9748H4.46675C5.39618 15.9748 6.24241 12.5758 7.87694 12.5758H12.2357L8.62088 31.3647C8.4029 32.4977 7.21102 32.5292 7.09597 33.1272L7.08386 33.1901C7.03542 33.4419 7.2676 33.5678 7.65219 33.5678ZM29.9806 29.1302C28.9849 30.6409 27.2424 31.8683 24.8707 31.8683C22.2747 31.8683 20.6346 30.2317 20.4182 27.5251L29.8469 24.6611C30.8689 24.3464 31.5167 23.8114 31.7104 22.8043C32.1282 20.6327 30.4913 18.1464 26.6454 18.1464C22.3828 18.1464 18.4459 21.451 17.5922 25.8886C16.6476 30.7982 19.3553 33.8825 23.4897 33.8825C27.4959 33.8825 30.1137 31.2703 30.8616 29.382C31.0728 28.784 30.3538 28.6896 29.9806 29.1302ZM25.9709 19.1535C28.1823 19.1535 29.2786 21.451 29.0062 22.8672C28.9032 23.4022 28.6123 23.7484 28.0251 23.9687L20.3936 26.4865C20.3944 25.983 20.4652 25.4479 20.5742 24.8814C21.1918 21.6713 23.3748 19.1535 25.9709 19.1535ZM37.3769 33.8511C41.3511 33.8511 44.2142 31.9627 44.6683 29.6023C45.8793 23.3078 35.5109 26.3921 36.3828 21.8601C36.6855 20.2865 38.3518 19.122 40.2106 19.122C44.1527 19.122 42.6128 22.9616 44.4396 22.9616C45.0806 22.9616 45.6842 22.4895 45.8053 21.8601C46.1323 20.1606 44.2443 18.1464 40.2701 18.1464C36.7447 18.1464 33.8815 20.0347 33.4153 22.4581C32.2225 28.6581 42.6291 25.5424 41.739 30.1688C41.3939 31.9627 39.6037 32.9384 37.5525 32.9384C33.2579 32.9384 35.0222 29.0987 33.0351 29.0987C32.298 29.0987 31.7065 29.5079 31.5611 30.2632C31.2766 31.7424 33.1144 33.8511 37.3769 33.8511ZM50.7 33.8825C53.2639 33.8825 55.1656 31.9942 55.541 30.0429C55.65 29.4764 54.8868 29.4449 54.6037 29.917C54.2697 30.9871 53.2789 31.8054 51.8688 31.8054C50.6829 31.8054 50.0252 30.8927 50.3583 29.1617L52.1747 19.72H56.5976C56.854 19.72 57.1146 19.5311 57.1691 19.2479L57.2297 18.9332C57.2781 18.6814 57.0962 18.4611 56.8398 18.4611H52.4169L52.9601 15.4712C53.0388 15.0621 52.953 14.8418 52.5684 14.8418H52.2479C51.9595 14.8418 51.6927 15.0621 51.582 15.4712C51.0766 17.2651 50.1094 18.4611 48.571 18.4611H47.4172C47.0967 18.4611 46.9001 18.6499 46.8457 18.9332L46.7851 19.2479C46.7306 19.5311 46.8866 19.72 47.175 19.72H49.2903L47.4799 29.1302C46.8623 32.3404 48.2321 33.8825 50.7 33.8825ZM65.972 33.8825C71.2923 33.8825 75.0012 30.2632 76.4208 26.5495C76.7887 25.6368 75.8194 25.5109 75.3137 26.1403C73.8721 28.4693 71.1036 31.3647 67.2577 31.3647C62.7387 31.3647 59.3879 26.9586 60.611 20.6012C61.5677 15.6286 65.5227 12.2296 69.2404 12.2296C75.1055 12.2296 73.7809 18.1149 76.1846 18.1149C77.082 18.1149 77.6978 17.5799 77.8552 16.7616C78.2911 14.4956 75.2897 10.9392 70.2258 10.9392C64.0723 10.9392 58.6953 15.5656 57.4238 22.1748C56.2249 28.4063 60.3313 33.8825 65.972 33.8825ZM91.6189 31.3018L92.4834 24.9759C93.1092 20.2235 90.8808 18.1464 87.7399 18.1464C85.6888 18.1464 83.7704 19.122 82.4862 20.6327L84.5121 10.4356C84.6029 9.96355 84.2928 9.74325 83.6614 10.0265L80.8154 11.1595C80.5027 11.2854 80.3122 11.4428 80.2637 11.6945L80.2456 11.7889C80.1487 12.2925 81.3545 12.3554 81.1183 13.5829L77.6973 31.3647C77.4854 32.4663 76.3056 32.4348 76.1845 33.0642L76.1663 33.1587C76.1179 33.4104 76.312 33.5678 76.6966 33.5678H80.7027C81.0873 33.5678 81.4061 33.4104 81.4545 33.1587L81.4727 33.0642C81.5938 32.4348 80.3057 32.4663 80.5176 31.3647L81.989 23.717C82.4673 21.2306 84.4591 19.3738 86.8308 19.3738C89.0422 19.3738 90.2614 21.1992 89.7072 24.9129L88.7925 31.3333C88.6446 32.4348 87.4207 32.4663 87.3057 33.0642L87.2814 33.1901C87.233 33.4419 87.4652 33.5678 87.8498 33.5678H91.6957C92.0803 33.5678 92.3609 33.4419 92.4094 33.1901L92.4336 33.0642C92.5486 32.4663 91.4971 32.4348 91.6189 31.3018ZM99.5155 15.4712C100.765 15.4712 101.75 14.6844 101.974 13.5199C102.198 12.3554 101.522 11.5372 100.272 11.5372C98.9583 11.5372 97.9676 12.3554 97.7436 13.5199C97.5196 14.6844 98.2015 15.4712 99.5155 15.4712ZM94.175 33.5678H98.1171C98.5017 33.5678 98.8204 33.4104 98.8689 33.1587L98.8931 33.0328C99.0081 32.4348 97.7262 32.4348 97.9381 31.3333L100.366 18.7129C100.451 18.2722 100.191 17.9575 99.4573 18.2722L96.7594 19.4682C96.4407 19.6256 96.2303 19.72 96.1879 19.9403L96.1758 20.0032C96.0849 20.4753 97.1903 20.7271 96.9542 21.9545L95.1498 31.3333C94.9379 32.4348 93.7841 32.4348 93.669 33.0328L93.6448 33.1587C93.5964 33.4104 93.7904 33.5678 94.175 33.5678ZM113.975 29.1302C112.98 30.6409 111.237 31.8683 108.865 31.8683C106.269 31.8683 104.629 30.2317 104.413 27.5251L113.842 24.6611C114.864 24.3464 115.511 23.8114 115.705 22.8043C116.123 20.6327 114.486 18.1464 110.64 18.1464C106.377 18.1464 102.441 21.451 101.587 25.8886C100.642 30.7982 103.35 33.8825 107.484 33.8825C111.491 33.8825 114.108 31.2703 114.856 29.382C115.067 28.784 114.349 28.6896 113.975 29.1302ZM109.966 19.1535C112.177 19.1535 113.273 21.451 113.001 22.8672C112.898 23.4022 112.607 23.7484 112.02 23.9687L104.388 26.4865C104.389 25.983 104.46 25.4479 104.569 24.8814C105.187 21.6713 107.37 19.1535 109.966 19.1535ZM126.914 10.3727C123.517 10.3727 121.254 12.6387 120.661 15.723L120.134 18.4611H117.474C117.185 18.4611 116.951 18.6814 116.908 18.9017L116.83 19.3108C116.787 19.5311 116.943 19.72 117.232 19.72H119.892L117.658 31.3333C117.44 32.4663 116.216 32.4977 116.101 33.0957L116.082 33.1901C116.04 33.4104 116.17 33.5678 116.491 33.5678H121.009C121.298 33.5678 121.521 33.4104 121.563 33.1901L121.581 33.0957C121.696 32.4977 120.26 32.4663 120.478 31.3333L122.712 19.72H127.167C127.423 19.72 127.652 19.5311 127.694 19.3108L127.773 18.9017C127.816 18.6814 127.666 18.4611 127.409 18.4611H122.954L123.118 17.6113C123.068 14.3697 124.066 11.3483 126.272 11.3798C129.118 11.4113 126.654 14.5585 129.154 14.5585C129.923 14.5585 130.448 13.992 130.551 13.457C130.878 11.7575 129.158 10.3727 126.914 10.3727Z" fill="#0152A8"/>
<path d="M15.1201 12.5758L15.2306 12.0014H14.6457L14.5352 12.5758H15.1201ZM22.6577 15.3768L22.0625 15.4894L22.0626 15.4977L22.0629 15.506L22.6577 15.3768ZM22.6187 11.9148L23.2139 11.8022L23.2137 11.7945L22.6187 11.9148ZM5.05554 11.9148L5.61821 11.9983L5.61895 11.9961L5.05554 11.9148ZM3.88276 15.3453L3.32008 15.2619L3.31934 15.2641L3.88276 15.3453ZM12.2357 12.5758H12.8206L12.9311 12.0014H12.3462L12.2357 12.5758ZM7.54169 34.1422H11.5479L11.7689 32.9934H7.7627L7.54169 34.1422ZM11.5479 34.1422C11.8006 34.1422 12.0897 34.1065 12.3551 33.9763C12.6599 33.8268 12.9191 33.5535 12.989 33.1901H11.8192C11.8263 33.1529 11.8476 33.0994 11.8913 33.0473C11.9326 32.9982 11.972 32.9761 11.9835 32.9705C11.9929 32.9659 11.9818 32.9728 11.941 32.9803C11.9013 32.9876 11.8444 32.9934 11.7689 32.9934L11.5479 34.1422ZM12.989 33.1901L13.0011 33.1272H11.8313L11.8192 33.1901H12.989ZM13.0011 33.1272C13.0742 32.7473 12.9123 32.4907 12.7672 32.3341C12.6455 32.2027 12.445 32.0566 12.3565 31.9828C12.135 31.7984 12.0341 31.6568 12.0903 31.3647H10.9204C10.7586 32.2057 11.1707 32.6463 11.4878 32.9104C11.6686 33.0609 11.744 33.1056 11.8163 33.1836C11.8653 33.2365 11.8157 33.2081 11.8313 33.1272H13.0011ZM12.0903 31.3647L15.705 12.5758H14.5352L10.9204 31.3647H12.0903ZM15.0096 13.1501H19.4324L19.6535 12.0014H15.2306L15.0096 13.1501ZM19.4324 13.1501C19.5956 13.1501 19.7591 13.2293 19.9312 13.4813C20.107 13.7386 20.2404 14.1039 20.3683 14.5264C20.4866 14.9174 20.6083 15.3917 20.7539 15.7393C20.8286 15.9175 20.9255 16.1048 21.0615 16.2525C21.2004 16.4033 21.415 16.5492 21.7271 16.5492L21.9481 15.4004C22.0278 15.4004 22.0465 15.44 22.0142 15.4049C21.979 15.3667 21.9295 15.2885 21.8707 15.148C21.7493 14.8583 21.6559 14.4829 21.517 14.0241C21.3877 13.5969 21.2219 13.1124 20.9624 12.7324C20.6993 12.3471 20.2916 12.0014 19.6535 12.0014L19.4324 13.1501ZM21.7271 16.5492H22.0476L22.2686 15.4004H21.9481L21.7271 16.5492ZM22.0476 16.5492C22.317 16.5492 22.6622 16.4571 22.9327 16.1648C23.1948 15.8817 23.265 15.5407 23.2525 15.2476L22.0629 15.506C22.0679 15.6221 22.0325 15.58 22.1125 15.4936C22.1513 15.4516 22.1957 15.4249 22.2308 15.4112C22.2625 15.3988 22.2773 15.4004 22.2686 15.4004L22.0476 16.5492ZM23.2529 15.2641L23.2139 11.8022L22.0234 12.0275L22.0625 15.4894L23.2529 15.2641ZM23.2137 11.7945C23.2065 11.5156 23.1466 11.2099 22.9319 10.9784C22.7084 10.7375 22.3847 10.6481 22.0291 10.6481L21.8081 11.7968C21.8885 11.7968 21.9332 11.8068 21.9554 11.8144C21.975 11.8212 21.98 11.8269 21.9814 11.8284C21.9856 11.833 22.0194 11.8735 22.0236 12.0352L23.2137 11.7945ZM22.0291 10.6481H6.10049L5.87948 11.7968H21.8081L22.0291 10.6481ZM6.10049 10.6481C5.74769 10.6481 5.38407 10.7363 5.06685 10.9844C4.75818 11.2258 4.59002 11.5438 4.49212 11.8336L5.61895 11.9961C5.66992 11.8452 5.71259 11.8171 5.70572 11.8224C5.69031 11.8345 5.71949 11.7968 5.87948 11.7968L6.10049 10.6481ZM4.49287 11.8314L3.32009 15.2619L4.44543 15.4287L5.61821 11.9983L4.49287 11.8314ZM3.31934 15.2641C3.22637 15.5393 3.16786 15.8736 3.3107 16.1522C3.47003 16.463 3.79321 16.5492 4.0678 16.5492L4.28881 15.4004C4.26459 15.4004 4.27716 15.3965 4.30594 15.4095C4.34009 15.425 4.37617 15.4551 4.39834 15.4983C4.41845 15.5375 4.41492 15.5637 4.41554 15.5523C4.41623 15.5394 4.4212 15.5005 4.44617 15.4265L3.31934 15.2641ZM4.0678 16.5492H4.35624L4.57726 15.4004H4.28881L4.0678 16.5492ZM4.35624 16.5492C4.67256 16.5492 4.94433 16.3996 5.14147 16.2407C5.33149 16.0875 5.49221 15.8949 5.62487 15.7154C5.88286 15.3665 6.15993 14.8874 6.40227 14.5003C6.66651 14.0783 6.91555 13.7191 7.17057 13.468C7.41483 13.2276 7.59721 13.1501 7.76643 13.1501L7.98744 12.0014C7.3394 12.0014 6.80306 12.3488 6.39989 12.7457C6.00749 13.132 5.68041 13.6225 5.4126 14.0502C5.12288 14.5129 4.91198 14.8836 4.69881 15.1719C4.5959 15.3111 4.52525 15.3841 4.48471 15.4168C4.45129 15.4437 4.4933 15.4004 4.57726 15.4004L4.35624 16.5492ZM7.76643 13.1501H12.1252L12.3462 12.0014H7.98744L7.76643 13.1501ZM11.6507 12.5758L8.03596 31.3647H9.2058L12.8206 12.5758H11.6507ZM8.03596 31.3647C8.00207 31.5409 7.93791 31.648 7.87261 31.7257C7.79898 31.8134 7.6986 31.8937 7.55044 31.9916C7.44151 32.0635 7.19292 32.212 7.0269 32.3444C6.82533 32.5052 6.58187 32.7591 6.51105 33.1272H7.6809C7.6676 33.1963 7.61627 33.222 7.67734 33.1733C7.77397 33.0963 7.85855 33.054 8.08922 32.9016C8.28065 32.7752 8.5263 32.5979 8.74106 32.3423C8.96414 32.0768 9.1307 31.7551 9.2058 31.3647H8.03596ZM6.51105 33.1272L6.49894 33.1901H7.66879L7.6809 33.1272H6.51105ZM6.49894 33.1901C6.42964 33.5503 6.58039 33.8217 6.81949 33.9721C7.0303 34.1047 7.29875 34.1422 7.54169 34.1422L7.7627 32.9934C7.69782 32.9934 7.65103 32.988 7.62012 32.9815C7.58825 32.9748 7.58288 32.9691 7.59179 32.9747C7.60218 32.9812 7.63166 33.0035 7.65273 33.0509C7.67504 33.1012 7.67594 33.1529 7.66879 33.1901H6.49894ZM29.9806 29.1302L29.5483 28.8196L29.5193 28.8539L29.4949 28.8909L29.9806 29.1302ZM20.4182 27.5251L20.3406 26.9794L19.7826 27.1489L19.8245 27.6735L20.4182 27.5251ZM29.8469 24.6611L29.9244 25.2068L29.927 25.206L29.8469 24.6611ZM30.8616 29.382L31.4135 29.4946L31.418 29.4831L31.4221 29.4716L30.8616 29.382ZM28.0251 23.9687L28.1185 24.5094L28.1321 24.5049L28.1456 24.4999L28.0251 23.9687ZM20.3936 26.4865L19.7984 26.5924L19.7974 27.2547L20.4871 27.0272L20.3936 26.4865ZM29.4949 28.8909C28.6255 30.21 27.1104 31.2939 24.9812 31.2939L24.7602 32.4427C27.3744 32.4427 29.3443 31.0718 30.4663 29.3695L29.4949 28.8909ZM24.9812 31.2939C22.6924 31.2939 21.2115 29.8746 21.0118 27.3767L19.8245 27.6735C20.0576 30.5888 21.8571 32.4427 24.7602 32.4427L24.9812 31.2939ZM20.4957 28.0708L29.9244 25.2068L29.7693 24.1154L20.3406 26.9794L20.4957 28.0708ZM29.927 25.206C30.498 25.0302 31.0352 24.7721 31.4655 24.3623C31.9077 23.9412 32.1775 23.4167 32.2954 22.8043H31.1255C31.0496 23.199 30.8987 23.4456 30.713 23.6224C30.5154 23.8106 30.2177 23.9773 29.7667 24.1162L29.927 25.206ZM32.2954 22.8043C32.7847 20.2605 30.8659 17.572 26.7559 17.572L26.5348 18.7207C30.1167 18.7207 31.4717 21.0049 31.1255 22.8043H32.2954ZM26.7559 17.572C22.1512 17.572 17.9184 21.1527 17.0072 25.8886H18.1771C18.9735 21.7492 22.6143 18.7207 26.5348 18.7207L26.7559 17.572ZM17.0072 25.8886C16.5101 28.4726 16.9681 30.6185 18.1364 32.1227C19.3047 33.6267 21.1595 34.4569 23.3792 34.4569L23.6002 33.3081C21.6855 33.3081 20.1192 32.5962 19.1362 31.3307C18.1532 30.0652 17.7296 28.2142 18.1771 25.8886H17.0072ZM23.3792 34.4569C27.6763 34.4569 30.5639 31.6397 31.4135 29.4946L30.3097 29.2693C29.6635 30.901 27.3155 33.3081 23.6002 33.3081L23.3792 34.4569ZM31.4221 29.4716C31.5164 29.2047 31.526 28.932 31.4104 28.7036C31.2965 28.4785 31.089 28.3522 30.8694 28.3047C30.4454 28.2129 29.908 28.395 29.5483 28.8196L30.4129 29.4408C30.4186 29.4341 30.423 29.4318 30.4261 29.4306C30.4325 29.4282 30.4282 29.4323 30.4111 29.4286C30.3915 29.4243 30.3474 29.4062 30.3206 29.3532C30.2921 29.2969 30.3124 29.2602 30.3011 29.2924L31.4221 29.4716ZM25.8603 19.7279C26.7486 19.7279 27.4478 20.1894 27.9051 20.8547C28.3698 21.5308 28.5244 22.331 28.4212 22.8672H29.5911C29.7604 21.9871 29.503 20.9304 28.9348 20.1038C28.3592 19.2662 27.4045 18.5791 26.0814 18.5791L25.8603 19.7279ZM28.4212 22.8672C28.385 23.0555 28.3272 23.1544 28.2739 23.215C28.22 23.2764 28.1192 23.3571 27.9045 23.4376L28.1456 24.4999C28.5181 24.3601 28.8565 24.1575 29.1205 23.857C29.3852 23.5557 29.5244 23.2139 29.5911 22.8672H28.4212ZM27.9316 23.4281L20.3001 25.9459L20.4871 27.0272L28.1185 24.5094L27.9316 23.4281ZM20.9889 26.3807C20.9896 25.9251 21.0538 25.4288 21.1591 24.8814H19.9893C19.8766 25.4671 19.7992 26.0409 19.7984 26.5924L20.9889 26.3807ZM21.1591 24.8814C21.4501 23.369 22.1028 22.0608 22.9425 21.1473C23.7723 20.2446 24.7784 19.7279 25.8603 19.7279L26.0814 18.5791C24.5673 18.5791 23.1839 19.3212 22.1187 20.48C21.0635 21.6279 20.3159 23.1837 19.9893 24.8814H21.1591ZM37.2664 34.4254C39.3418 34.4254 41.1801 33.933 42.5862 33.0832C44.0008 32.2283 44.9839 31.0023 45.2533 29.6023H44.0834C43.8987 30.5627 43.2231 31.4611 42.099 32.1405C40.9666 32.8249 39.3862 33.2767 37.4874 33.2767L37.2664 34.4254ZM45.2533 29.6023C45.5903 27.8505 45.1178 26.6903 44.199 25.9129C43.3196 25.1688 42.0592 24.802 40.898 24.5121C39.685 24.2092 38.6003 23.9915 37.8388 23.5821C37.4713 23.3845 37.2199 23.161 37.0764 22.8984C36.9374 22.6441 36.8797 22.3175 36.9677 21.8601H35.7978C35.6679 22.5357 35.7434 23.104 35.9998 23.5731C36.2517 24.034 36.6579 24.3622 37.1209 24.6111C38.0204 25.0947 39.2887 25.3491 40.4074 25.6285C41.578 25.9208 42.6282 26.2464 43.325 26.8359C43.9824 27.3922 44.3519 28.2069 44.0834 29.6023H45.2533ZM36.9677 21.8601C37.1919 20.6947 38.4631 19.6964 40.1001 19.6964L40.3211 18.5476C38.2404 18.5476 36.1791 19.8782 35.7978 21.8601H36.9677ZM40.1001 19.6964C40.9824 19.6964 41.506 19.9088 41.8456 20.1877C42.1932 20.473 42.3934 20.8641 42.5502 21.3119C42.6299 21.5396 42.692 21.7614 42.7639 21.9982C42.8326 22.2247 42.9103 22.4648 43.0141 22.6794C43.2296 23.125 43.6 23.536 44.3291 23.536L44.5501 22.3872C44.3658 22.3872 44.2436 22.3183 44.1109 22.044C44.0406 21.8986 43.9802 21.7187 43.9124 21.4953C43.8478 21.2822 43.7749 21.024 43.6865 20.7717C43.5072 20.2596 43.239 19.6908 42.7095 19.2562C42.1721 18.8151 41.4099 18.5476 40.3211 18.5476L40.1001 19.6964ZM44.3291 23.536C45.2713 23.536 46.2041 22.8278 46.3902 21.8601H45.2204C45.1644 22.1513 44.8899 22.3872 44.5501 22.3872L44.3291 23.536ZM46.3902 21.8601C46.6023 20.758 46.0855 19.6738 45.0721 18.8919C44.0464 18.1004 42.4659 17.572 40.3806 17.572L40.1596 18.7207C42.0485 18.7207 43.3991 19.1995 44.2291 19.84C45.0716 20.49 45.3353 21.2627 45.2204 21.8601H46.3902ZM40.3806 17.572C36.7068 17.572 33.3861 19.5697 32.8304 22.4581H34.0002C34.377 20.4997 36.7826 18.7207 40.1596 18.7207L40.3806 17.572ZM32.8304 22.4581C32.497 24.191 32.9793 25.3326 33.9058 26.0936C34.791 26.8206 36.0568 27.1768 37.2204 27.4622C38.4358 27.7604 39.5236 27.9806 40.2841 28.3969C40.6513 28.5979 40.9034 28.8266 41.0474 29.0967C41.1874 29.3593 41.2448 29.6973 41.1541 30.1688H42.3239C42.4557 29.4836 42.3826 28.907 42.1285 28.4302C41.8784 27.961 41.4729 27.6256 41.0083 27.3712C40.1051 26.8768 38.8328 26.621 37.7068 26.3448C36.5292 26.0559 35.4726 25.7394 34.7699 25.1623C34.1085 24.6191 33.7372 23.8251 34.0002 22.4581H32.8304ZM41.1541 30.1688C41.0183 30.8745 40.6131 31.3969 40.0314 31.7614C39.4284 32.1393 38.603 32.364 37.663 32.364L37.442 33.5127C38.5532 33.5127 39.6485 33.2496 40.5396 32.6912C41.4522 32.1193 42.1146 31.257 42.3239 30.1688H41.1541ZM37.663 32.364C36.6819 32.364 36.1034 32.1462 35.7347 31.8635C35.3614 31.5774 35.1543 31.1882 34.9955 30.7452C34.9143 30.5186 34.8521 30.2983 34.7791 30.0606C34.7094 29.8338 34.6297 29.5915 34.5206 29.3747C34.4104 29.1556 34.2585 28.9381 34.0279 28.7771C33.7907 28.6114 33.4973 28.5243 33.1456 28.5243L32.9246 29.6731C33.0697 29.6731 33.1558 29.7061 33.2192 29.7504C33.2893 29.7993 33.3591 29.8818 33.43 30.0226C33.502 30.1658 33.5629 30.3435 33.6315 30.5666C33.6967 30.7789 33.7706 31.0385 33.8614 31.2918C34.0468 31.8088 34.328 32.3795 34.8939 32.8133C35.4643 33.2506 36.2758 33.5127 37.442 33.5127L37.663 32.364ZM33.1456 28.5243C32.6706 28.5243 32.179 28.6569 31.7645 28.9727C31.3407 29.2956 31.0747 29.7514 30.9762 30.2632H32.1461C32.1929 30.0197 32.2953 29.8933 32.3879 29.8227C32.4897 29.7451 32.6625 29.6731 32.9246 29.6731L33.1456 28.5243ZM30.9762 30.2632C30.782 31.2725 31.3177 32.3233 32.3485 33.0906C33.4016 33.8743 35.0386 34.4254 37.2664 34.4254L37.4874 33.2767C35.4527 33.2767 34.0395 32.7735 33.1792 32.1331C32.2966 31.4762 32.0557 30.7331 32.1461 30.2632H30.9762ZM54.6037 29.917L54.1017 29.7037L54.0593 29.7743L54.0357 29.8499L54.6037 29.917ZM52.1747 19.72L52.2852 19.1456H51.7003L51.5898 19.72H52.1747ZM52.4169 18.4611L51.8309 18.4671L51.7276 19.0355H52.3064L52.4169 18.4611ZM52.9601 15.4712L52.3752 15.4712L52.3741 15.4773L52.9601 15.4712ZM51.582 15.4712L52.155 15.5214L52.1567 15.5153L51.582 15.4712ZM49.2903 19.72H49.8752L49.9857 19.1456H49.4008L49.2903 19.72ZM50.5895 34.4569C53.4948 34.4569 55.693 32.2931 56.1259 30.0429H54.9561C54.6382 31.6953 53.0331 33.3081 50.8105 33.3081L50.5895 34.4569ZM56.1259 30.0429C56.1793 29.7657 56.1307 29.5084 55.9754 29.3157C55.8253 29.1296 55.6045 29.039 55.3834 29.0185C54.9545 28.9789 54.4046 29.1986 54.1017 29.7037L55.1058 30.1303C55.0987 30.1421 55.0854 30.1535 55.0746 30.1589C55.0683 30.162 55.0635 30.1632 55.0554 30.1624C55.0468 30.1616 55.0141 30.1556 54.9853 30.12C54.9709 30.1021 54.9621 30.0818 54.9584 30.0633C54.9547 30.0452 54.9573 30.0365 54.9561 30.0429H56.1259ZM54.0357 29.8499C53.909 30.2557 53.6667 30.5912 53.3422 30.827C53.0181 31.0624 52.5667 31.231 51.9793 31.231L51.7583 32.3797C52.5811 32.3797 53.33 32.1392 53.9374 31.6979C54.5443 31.257 54.9644 30.6484 55.1717 29.9841L54.0357 29.8499ZM51.9793 31.231C51.5534 31.231 51.253 31.0744 51.0718 30.7772C50.8815 30.465 50.7926 29.9442 50.9432 29.1617H49.7733C49.5909 30.1101 49.6644 30.9112 50.0161 31.488C50.377 32.08 50.9983 32.3797 51.7583 32.3797L51.9793 31.231ZM50.9432 29.1617L52.7597 19.72H51.5898L49.7733 29.1617H50.9432ZM52.0642 20.2944H56.4871L56.7081 19.1456H52.2852L52.0642 20.2944ZM56.4871 20.2944C57.0406 20.2944 57.6337 19.8733 57.7541 19.2479H56.5842C56.5851 19.2432 56.5886 19.2312 56.5985 19.2154C56.6081 19.2 56.6209 19.186 56.6351 19.1747C56.6632 19.1524 56.6902 19.1456 56.7081 19.1456L56.4871 20.2944ZM57.7541 19.2479L57.8146 18.9332H56.6448L56.5842 19.2479H57.7541ZM57.8146 18.9332C57.9241 18.3642 57.5297 17.8867 56.9503 17.8867L56.7293 19.0355C56.6853 19.0355 56.6645 19.0176 56.6573 19.0089C56.6501 19.0001 56.6365 18.9763 56.6448 18.9332H57.8146ZM56.9503 17.8867H52.5274L52.3064 19.0355H56.7293L56.9503 17.8867ZM53.003 18.455L53.5462 15.4652L52.3741 15.4773L51.8309 18.4671L53.003 18.455ZM53.545 15.4712C53.591 15.2322 53.6189 14.9194 53.4738 14.6612C53.3061 14.3628 52.9894 14.2674 52.6789 14.2674L52.4579 15.4162C52.4995 15.4162 52.4976 15.4224 52.476 15.4128C52.4645 15.4077 52.4501 15.3992 52.4356 15.3863C52.4211 15.3732 52.41 15.3588 52.4022 15.345C52.387 15.318 52.3905 15.3045 52.3913 15.3271C52.3922 15.3505 52.3897 15.3956 52.3752 15.4712H53.545ZM52.6789 14.2674H52.3584L52.1374 15.4162H52.4579L52.6789 14.2674ZM52.3584 14.2674C52.0511 14.2674 51.7389 14.3897 51.4846 14.6215C51.2396 14.8447 51.0871 15.1323 51.0073 15.4272L52.1567 15.5153C52.1877 15.4009 52.2239 15.3739 52.2121 15.3847C52.2057 15.3905 52.1925 15.4002 52.1739 15.4076C52.1556 15.415 52.1421 15.4162 52.1374 15.4162L52.3584 14.2674ZM51.009 15.421C50.7709 16.266 50.4435 16.893 50.0606 17.2959C49.7052 17.6699 49.2705 17.8867 48.6815 17.8867L48.4605 19.0355C49.4099 19.0355 50.228 18.6543 50.8671 17.9818C51.4788 17.3382 51.8877 16.4704 52.155 15.5214L51.009 15.421ZM48.6815 17.8867H47.5277L47.3067 19.0355H48.4605L48.6815 17.8867ZM47.5277 17.8867C47.2486 17.8867 46.9432 17.972 46.6843 18.1948C46.431 18.4127 46.3077 18.6889 46.2607 18.9332H47.4306C47.4381 18.8942 47.4403 18.9343 47.379 18.987C47.3501 19.012 47.3215 19.0262 47.3023 19.0328C47.285 19.0388 47.2845 19.0355 47.3067 19.0355L47.5277 17.8867ZM46.2607 18.9332L46.2002 19.2479H47.37L47.4306 18.9332H46.2607ZM46.2002 19.2479C46.1478 19.52 46.1905 19.7915 46.3597 19.9963C46.5289 20.2011 46.7874 20.2944 47.0645 20.2944L47.2855 19.1456C47.2785 19.1456 47.2845 19.1445 47.2979 19.1499C47.3117 19.1556 47.3286 19.1664 47.3432 19.184C47.3578 19.2016 47.3652 19.2203 47.3681 19.235C47.3709 19.2491 47.3687 19.2548 47.37 19.2479H46.2002ZM47.0645 20.2944H49.1798L49.4008 19.1456H47.2855L47.0645 20.2944ZM48.7054 19.72L46.8949 29.1302H48.0648L49.8752 19.72H48.7054ZM46.8949 29.1302C46.5684 30.8273 46.7508 32.171 47.425 33.0956C48.1048 34.0277 49.2281 34.4569 50.5895 34.4569L50.8105 33.3081C49.704 33.3081 48.9085 32.9662 48.4407 32.3248C47.9675 31.6758 47.7737 30.6433 48.0648 29.1302H46.8949ZM76.4208 26.5495L75.8703 26.4331L75.866 26.4442L76.4208 26.5495ZM75.3137 26.1403L74.869 25.8448L74.8405 25.8803L74.8169 25.9184L75.3137 26.1403ZM65.8615 34.4569C71.5159 34.4569 75.4727 30.5864 76.9756 26.6547L75.866 26.4442C74.5298 29.94 71.0686 33.3081 66.0825 33.3081L65.8615 34.4569ZM76.9712 26.6658C77.1021 26.341 77.1414 26.0163 77.0408 25.7377C76.9385 25.4544 76.7121 25.2785 76.4439 25.2094C75.9264 25.076 75.2809 25.3321 74.869 25.8448L75.7584 26.4359C75.8027 26.3807 75.8497 26.3507 75.8866 26.3359C75.9272 26.3197 75.9477 26.3243 75.9458 26.3238C75.9437 26.3233 75.9358 26.3207 75.9264 26.3127C75.9165 26.3042 75.9102 26.294 75.9074 26.2862C75.901 26.2683 75.9234 26.3016 75.8704 26.4331L76.9712 26.6658ZM74.8169 25.9184C73.4253 28.1665 70.8602 30.7903 67.3682 30.7903L67.1472 31.9391C71.347 31.9391 74.3188 28.7721 75.8105 26.3623L74.8169 25.9184ZM67.3682 30.7903C63.2659 30.7903 60.0145 26.742 61.1959 20.6012H60.0261C58.7613 27.1752 62.2114 31.9391 67.1472 31.9391L67.3682 30.7903ZM61.1959 20.6012C62.1077 15.8621 65.8143 12.8039 69.1299 12.8039L69.3509 11.6552C65.2311 11.6552 61.0277 15.395 60.0261 20.6012H61.1959ZM69.1299 12.8039C70.4885 12.8039 71.3969 13.1423 72.0457 13.6273C72.7022 14.118 73.124 14.7818 73.4611 15.4879C73.6304 15.8423 73.7735 16.1965 73.9185 16.5467C74.0607 16.8898 74.2066 17.2339 74.3732 17.5348C74.7008 18.1266 75.1834 18.6893 76.0741 18.6893L76.2951 17.5405C75.984 17.5405 75.7308 17.3675 75.4475 16.8558C75.3086 16.6049 75.1802 16.3054 75.0367 15.9588C74.896 15.6192 74.742 15.2378 74.56 14.8566C74.1946 14.0913 73.6976 13.2837 72.8778 12.671C72.0503 12.0524 70.9249 11.6552 69.3509 11.6552L69.1299 12.8039ZM76.0741 18.6893C76.6424 18.6893 77.1895 18.5174 77.6329 18.1512C78.0755 17.7856 78.3386 17.2891 78.4401 16.7616H77.2703C77.2143 17.0524 77.0908 17.2325 76.9619 17.3389C76.8337 17.4448 76.6243 17.5405 76.2951 17.5405L76.0741 18.6893ZM78.4401 16.7616C78.577 16.0498 78.4368 15.2955 78.1114 14.5864C77.7832 13.871 77.2509 13.1663 76.5468 12.5451C75.1385 11.3026 73.0082 10.3648 70.3363 10.3648L70.1153 11.5136C72.5073 11.5136 74.4097 12.354 75.659 13.4562C76.2838 14.0074 76.7367 14.6166 77.0068 15.2053C77.2798 15.8004 77.3513 16.3403 77.2703 16.7616H78.4401ZM70.3363 10.3648C63.8242 10.3648 58.1645 15.2845 56.8389 22.1748H58.0087C59.2262 15.8468 64.3204 11.5136 70.1153 11.5136L70.3363 10.3648ZM56.8389 22.1748C55.5888 28.6727 59.8483 34.4569 65.8615 34.4569L66.0825 33.3081C60.8144 33.3081 56.8611 28.14 58.0087 22.1748H56.8389ZM91.6189 31.3018L91.0288 31.3332L91.0277 31.3413L91.0268 31.3495L91.6189 31.3018ZM92.4834 24.9759L93.0735 24.9445L93.0738 24.9417L92.4834 24.9759ZM82.4862 20.6327L81.902 20.6291L81.5105 22.5996L82.9176 20.9443L82.4862 20.6327ZM84.5121 10.4356L85.0964 10.4392L85.097 10.4356H84.5121ZM83.6614 10.0265L83.7953 10.5524L83.8098 10.5467L83.8241 10.5402L83.6614 10.0265ZM80.8154 11.1595L80.6814 10.6336L80.6788 10.6346L80.8154 11.1595ZM89.7072 24.9129L89.1181 24.9372L89.1175 24.941L89.7072 24.9129ZM88.7925 31.3333L88.2028 31.3614L88.2022 31.366L88.7925 31.3333ZM92.209 31.2704L93.0735 24.9445L91.8933 25.0072L91.0288 31.3332L92.209 31.2704ZM93.0738 24.9417C93.3994 22.4697 92.9916 20.6191 92.0231 19.3817C91.0507 18.1396 89.5569 17.572 87.8504 17.572L87.6294 18.7207C89.0639 18.7207 90.2546 19.1917 91.0253 20.1762C91.7997 21.1655 92.1932 22.7297 91.8929 25.01L93.0738 24.9417ZM87.8504 17.572C85.6025 17.572 83.4796 18.645 82.0548 20.3211L82.9176 20.9443C84.0612 19.599 85.775 18.7207 87.6294 18.7207L87.8504 17.572ZM83.0705 20.6362L85.0963 10.4392L83.9279 10.4321L81.902 20.6291L83.0705 20.6362ZM85.097 10.4356C85.1676 10.0688 85.1044 9.64357 84.718 9.43407C84.3576 9.23865 83.8958 9.33456 83.4987 9.51275L83.8241 10.5402C83.9317 10.492 83.9963 10.4787 84.0248 10.4758C84.0511 10.4731 84.0318 10.4803 83.9972 10.4616C83.9805 10.4525 83.9654 10.4401 83.9536 10.4253C83.9419 10.4107 83.9362 10.3975 83.9337 10.3896C83.9291 10.3751 83.9369 10.3852 83.9272 10.4356H85.097ZM83.5274 9.50056L80.6814 10.6336L80.9493 11.6854L83.7953 10.5524L83.5274 9.50056ZM80.6788 10.6346C80.4814 10.7141 80.2599 10.8273 80.07 11.0044C79.863 11.1975 79.729 11.4338 79.6788 11.6945H80.8487C80.849 11.6926 80.847 11.7034 80.8372 11.7207C80.8272 11.7383 80.8162 11.7503 80.8109 11.7552C80.8071 11.7588 80.8128 11.7525 80.8366 11.7387C80.8606 11.7247 80.8976 11.7063 80.9519 11.6844L80.6788 10.6346ZM79.6788 11.6945L79.6606 11.7889H80.8305L80.8487 11.6945H79.6788ZM79.6606 11.7889C79.5864 12.1748 79.7844 12.4196 79.9101 12.5456C79.9768 12.6124 80.0518 12.6734 80.1123 12.7222C80.1782 12.7755 80.2336 12.8194 80.2882 12.8682C80.3947 12.9634 80.4675 13.0511 80.5098 13.1517C80.5491 13.2452 80.5731 13.3763 80.5334 13.5829H81.7032C81.7816 13.1758 81.7435 12.8387 81.6261 12.5595C81.5117 12.2873 81.3334 12.0977 81.1801 11.9607C81.1049 11.8935 81.0281 11.8326 80.9705 11.7862C80.9075 11.7353 80.8675 11.7017 80.8384 11.6726C80.7727 11.6067 80.8563 11.6548 80.8305 11.7889H79.6606ZM80.5334 13.5829L77.1124 31.3647H78.2822L81.7032 13.5829H80.5334ZM77.1124 31.3647C77.0807 31.5292 77.0217 31.6212 76.9655 31.6852C76.8989 31.7609 76.8054 31.8321 76.6561 31.9246C76.5448 31.9935 76.2972 32.132 76.1217 32.2698C75.9073 32.4381 75.6706 32.6951 75.5996 33.0642H76.7694C76.7589 33.1187 76.7151 33.1436 76.7626 33.1063C76.849 33.0385 76.9323 32.9981 77.1576 32.8585C77.3449 32.7425 77.5936 32.5756 77.8116 32.3278C78.0399 32.0681 78.2079 31.751 78.2822 31.3647H77.1124ZM75.5996 33.0642L75.5814 33.1587H76.7512L76.7694 33.0642H75.5996ZM75.5814 33.1587C75.5202 33.4767 75.6202 33.7539 75.8453 33.9299C76.0499 34.09 76.3233 34.1422 76.586 34.1422L76.8071 32.9934C76.7505 32.9934 76.7147 32.9875 76.6954 32.9825C76.6759 32.9774 76.6794 32.9749 76.6929 32.9854C76.7078 32.9971 76.7298 33.0211 76.7433 33.0601C76.7569 33.0993 76.7557 33.1357 76.7512 33.1587H75.5814ZM76.586 34.1422H80.5922L80.8132 32.9934H76.8071L76.586 34.1422ZM80.5922 34.1422C80.856 34.1422 81.1473 34.0897 81.4109 33.9502C81.6876 33.8037 81.9669 33.5356 82.0394 33.1587H80.8696C80.8792 33.1084 80.905 33.0575 80.9396 33.0168C80.9711 32.9798 80.9973 32.9657 80.9985 32.9651C80.9995 32.9646 80.9845 32.9724 80.9496 32.9801C80.9156 32.9876 80.8696 32.9934 80.8132 32.9934L80.5922 34.1422ZM82.0394 33.1587L82.0576 33.0642H80.8877L80.8696 33.1587H82.0394ZM82.0576 33.0642C82.132 32.6774 81.9704 32.4168 81.8122 32.2549C81.6796 32.1192 81.4723 31.9841 81.3763 31.9127C81.2494 31.8184 81.1745 31.745 81.1322 31.668C81.0974 31.6048 81.0729 31.5189 81.1026 31.3647H79.9327C79.8564 31.7614 79.9135 32.0846 80.0568 32.345C80.1926 32.5916 80.3924 32.7562 80.5459 32.8704C80.7303 33.0075 80.809 33.0514 80.8773 33.1212C80.9199 33.1648 80.8739 33.1363 80.8877 33.0642H82.0576ZM81.1026 31.3647L82.5739 23.717H81.4041L79.9327 31.3647H81.1026ZM82.5739 23.717C83.0033 21.4853 84.7319 19.9482 86.7202 19.9482L86.9413 18.7994C84.1863 18.7994 81.9314 20.976 81.4041 23.717H82.5739ZM86.7202 19.9482C87.6395 19.9482 88.3391 20.3173 88.7693 21.0909C89.2118 21.8865 89.3856 23.145 89.1181 24.9372L90.2963 24.8886C90.583 22.967 90.4243 21.456 89.8428 20.4105C89.2491 19.343 88.2334 18.7994 86.9413 18.7994L86.7202 19.9482ZM89.1175 24.941L88.2028 31.3614L89.3821 31.3051L90.2968 24.8848L89.1175 24.941ZM88.2022 31.366C88.1805 31.5277 88.1268 31.6187 88.0744 31.6825C88.0117 31.7588 87.9199 31.8334 87.7719 31.9296C87.6657 31.9987 87.413 32.1469 87.2461 32.2775C87.044 32.4357 86.7926 32.6908 86.7207 33.0642H87.8906C87.8763 33.1387 87.821 33.1657 87.8853 33.1153C87.9849 33.0374 88.069 32.9968 88.3016 32.8456C88.4925 32.7215 88.7416 32.5443 88.9536 32.2862C89.1758 32.0156 89.3305 31.6896 89.3827 31.3005L88.2022 31.366ZM86.7207 33.0642L86.6965 33.1901H87.8664L87.8906 33.0642H86.7207ZM86.6965 33.1901C86.6272 33.5503 86.778 33.8217 87.0171 33.9721C87.2279 34.1047 87.4963 34.1422 87.7393 34.1422L87.9603 32.9934C87.8954 32.9934 87.8486 32.988 87.8177 32.9815C87.7858 32.9748 87.7805 32.9691 87.7894 32.9747C87.7998 32.9812 87.8292 33.0035 87.8503 33.0509C87.8726 33.1012 87.8735 33.1529 87.8664 33.1901H86.6965ZM87.7393 34.1422H91.5852L91.8062 32.9934H87.9603L87.7393 34.1422ZM91.5852 34.1422C91.8281 34.1422 92.111 34.1047 92.3729 33.9721C92.6698 33.8217 92.925 33.5503 92.9943 33.1901H91.8244C91.8316 33.1529 91.8524 33.1012 91.8941 33.0509C91.9334 33.0035 91.9714 32.9812 91.9843 32.9747C91.9954 32.9691 91.9878 32.9748 91.9534 32.9815C91.92 32.988 91.8711 32.9934 91.8062 32.9934L91.5852 34.1422ZM92.9943 33.1901L93.0185 33.0642H91.8487L91.8244 33.1901H92.9943ZM93.0185 33.0642C93.0848 32.7194 92.9693 32.4713 92.8389 32.3017C92.732 32.1626 92.5598 32.0161 92.4814 31.9408C92.2952 31.7619 92.1738 31.5994 92.211 31.2541L91.0268 31.3495C90.9421 32.1372 91.2856 32.557 91.566 32.8265C91.7209 32.9754 91.7823 33.0198 91.8364 33.0901C91.8671 33.13 91.8398 33.1101 91.8487 33.0642H93.0185ZM99.4573 18.2722L99.3056 17.7536L99.2976 17.7572L99.4573 18.2722ZM96.7594 19.4682L96.5997 18.9531L96.5857 18.9593L96.572 18.9661L96.7594 19.4682ZM99.405 16.0456C100.156 16.0456 100.875 15.8073 101.454 15.3474C102.035 14.8854 102.42 14.2417 102.559 13.5199H101.389C101.304 13.9626 101.085 14.2945 100.805 14.5171C100.523 14.7417 100.125 14.8968 99.626 14.8968L99.405 16.0456ZM102.559 13.5199C102.698 12.7991 102.562 12.1501 102.164 11.6812C101.766 11.213 101.14 10.9628 100.383 10.9628L100.162 12.1116C100.654 12.1116 100.991 12.2705 101.188 12.5025C101.384 12.7339 101.475 13.0763 101.389 13.5199H102.559ZM100.383 10.9628C99.6008 10.9628 98.8634 11.2083 98.2746 11.6769C97.6839 12.147 97.2974 12.7986 97.1587 13.5199H98.3285C98.4138 13.0767 98.6346 12.737 98.9238 12.5068C99.2149 12.2752 99.6299 12.1116 100.162 12.1116L100.383 10.9628ZM97.1587 13.5199C97.0197 14.2422 97.1574 14.8886 97.5725 15.3517C97.9847 15.8117 98.6292 16.0456 99.405 16.0456L99.626 14.8968C99.0878 14.8968 98.7342 14.7373 98.5331 14.5128C98.3347 14.2914 98.2434 13.9621 98.3285 13.5199H97.1587ZM94.0645 34.1422H98.0066L98.2276 32.9934H94.2855L94.0645 34.1422ZM98.0066 34.1422C98.2704 34.1422 98.5617 34.0897 98.8252 33.9502C99.102 33.8037 99.3813 33.5356 99.4538 33.1587H98.284C98.2936 33.1084 98.3194 33.0575 98.354 33.0168C98.3855 32.9798 98.4117 32.9657 98.4129 32.9651C98.4139 32.9646 98.3989 32.9724 98.364 32.9801C98.33 32.9876 98.284 32.9934 98.2276 32.9934L98.0066 34.1422ZM99.4538 33.1587L99.478 33.0328H98.3082L98.284 33.1587H99.4538ZM99.478 33.0328C99.5528 32.6443 99.3797 32.3872 99.2274 32.234C99.0986 32.1044 98.8916 31.9668 98.7981 31.8958C98.6729 31.8006 98.5968 31.7245 98.5536 31.6443C98.5174 31.5771 98.4933 31.4877 98.523 31.3333H97.3532C97.2769 31.7296 97.3336 32.0532 97.4746 32.3146C97.6085 32.5629 97.806 32.7306 97.9604 32.8479C98.1465 32.9893 98.2252 33.0327 98.2978 33.1057C98.3469 33.1551 98.291 33.1222 98.3082 33.0328H99.478ZM98.523 31.3333L100.951 18.7129H99.7812L97.3532 31.3333H98.523ZM100.951 18.7129C101.016 18.3734 100.972 17.9477 100.609 17.7136C100.25 17.4811 99.7612 17.5582 99.3056 17.7537L99.6091 18.7908C99.7406 18.7344 99.816 18.7216 99.848 18.7196C99.8756 18.7178 99.8578 18.7244 99.8278 18.705C99.7976 18.6855 99.7873 18.6605 99.7855 18.654C99.7847 18.6511 99.7897 18.6685 99.7812 18.7129H100.951ZM99.2976 17.7572L96.5997 18.9531L96.9192 19.9833L99.6171 18.7873L99.2976 17.7572ZM96.572 18.9661C96.4443 19.0291 96.2371 19.1259 96.0733 19.2445C95.8656 19.3949 95.6642 19.6219 95.603 19.9403H96.7728C96.7666 19.9724 96.7497 20.0173 96.7173 20.062C96.6882 20.1021 96.6627 20.1197 96.6668 20.1167C96.6731 20.1122 96.6946 20.098 96.7471 20.0703C96.8007 20.042 96.86 20.0132 96.9469 19.9703L96.572 18.9661ZM95.603 19.9403L95.5909 20.0032H96.7607L96.7728 19.9403H95.603ZM95.5909 20.0032C95.5219 20.3616 95.6952 20.609 95.796 20.7352C95.8528 20.8064 95.9178 20.8752 95.9721 20.9326C96.0303 20.9941 96.0822 21.0486 96.1325 21.1075C96.3195 21.3262 96.4457 21.5569 96.3692 21.9545H97.5391C97.6987 21.1247 97.3903 20.6158 97.1064 20.2838C97.039 20.205 96.9709 20.1335 96.9167 20.0763C96.8587 20.015 96.8189 19.9721 96.7886 19.9341C96.715 19.842 96.7842 19.8809 96.7607 20.0032H95.5909ZM96.3692 21.9545L94.5649 31.3333H95.7347L97.5391 21.9545H96.3692ZM94.5649 31.3333C94.5325 31.5013 94.4724 31.599 94.414 31.6675C94.3469 31.7464 94.254 31.8198 94.1105 31.9123C94.0059 31.9798 93.7617 32.1223 93.5954 32.2542C93.3914 32.4161 93.1542 32.6683 93.0841 33.0328H94.254C94.2414 33.0982 94.1916 33.1262 94.2429 33.0855C94.3319 33.0149 94.4109 32.9763 94.6356 32.8314C94.8215 32.7115 95.0639 32.5409 95.2763 32.2913C95.4975 32.0314 95.6611 31.716 95.7347 31.3333H94.5649ZM93.0841 33.0328L93.0599 33.1587H94.2297L94.254 33.0328H93.0841ZM93.0599 33.1587C92.9987 33.4767 93.0987 33.7539 93.3237 33.9299C93.5284 34.09 93.8018 34.1422 94.0645 34.1422L94.2855 32.9934C94.2289 32.9934 94.1932 32.9875 94.1739 32.9825C94.1544 32.9774 94.1579 32.9749 94.1713 32.9854C94.1863 32.9971 94.2083 33.0211 94.2218 33.0601C94.2354 33.0993 94.2342 33.1357 94.2297 33.1587H93.0599ZM113.975 29.1302L113.543 28.8196L113.514 28.8539L113.49 28.8909L113.975 29.1302ZM104.413 27.5251L104.335 26.9794L103.777 27.1489L103.819 27.6735L104.413 27.5251ZM113.842 24.6611L113.919 25.2068L113.922 25.206L113.842 24.6611ZM114.856 29.382L115.408 29.4946L115.413 29.4831L115.417 29.4716L114.856 29.382ZM112.02 23.9687L112.113 24.5094L112.127 24.5049L112.14 24.4999L112.02 23.9687ZM104.388 26.4865L103.793 26.5924L103.792 27.2547L104.482 27.0272L104.388 26.4865ZM113.49 28.8909C112.62 30.21 111.105 31.2939 108.976 31.2939L108.755 32.4427C111.369 32.4427 113.339 31.0718 114.461 29.3695L113.49 28.8909ZM108.976 31.2939C106.687 31.2939 105.206 29.8746 105.006 27.3767L103.819 27.6735C104.052 30.5888 105.852 32.4427 108.755 32.4427L108.976 31.2939ZM104.49 28.0708L113.919 25.2068L113.764 24.1154L104.335 26.9794L104.49 28.0708ZM113.922 25.206C114.493 25.0302 115.03 24.7721 115.46 24.3623C115.902 23.9412 116.172 23.4167 116.29 22.8043H115.12C115.044 23.199 114.893 23.4456 114.708 23.6224C114.51 23.8106 114.212 23.9773 113.761 24.1162L113.922 25.206ZM116.29 22.8043C116.779 20.2605 114.861 17.572 110.751 17.572L110.53 18.7207C114.111 18.7207 115.466 21.0049 115.12 22.8043H116.29ZM110.751 17.572C106.146 17.572 101.913 21.1527 101.002 25.8886H102.172C102.968 21.7492 106.609 18.7207 110.53 18.7207L110.751 17.572ZM101.002 25.8886C100.505 28.4726 100.963 30.6185 102.131 32.1227C103.299 33.6267 105.154 34.4569 107.374 34.4569L107.595 33.3081C105.68 33.3081 104.114 32.5962 103.131 31.3307C102.148 30.0652 101.724 28.2142 102.172 25.8886H101.002ZM107.374 34.4569C111.671 34.4569 114.559 31.6397 115.408 29.4946L114.304 29.2693C113.658 30.901 111.31 33.3081 107.595 33.3081L107.374 34.4569ZM115.417 29.4716C115.511 29.2047 115.521 28.932 115.405 28.7036C115.291 28.4785 115.084 28.3522 114.864 28.3047C114.44 28.2129 113.903 28.395 113.543 28.8196L114.408 29.4408C114.413 29.4341 114.418 29.4318 114.421 29.4306C114.427 29.4282 114.423 29.4323 114.406 29.4286C114.386 29.4243 114.342 29.4062 114.315 29.3532C114.287 29.2969 114.307 29.2602 114.296 29.2924L115.417 29.4716ZM109.855 19.7279C110.743 19.7279 111.443 20.1894 111.9 20.8547C112.365 21.5308 112.519 22.331 112.416 22.8672H113.586C113.755 21.9871 113.498 20.9304 112.93 20.1038C112.354 19.2662 111.399 18.5791 110.076 18.5791L109.855 19.7279ZM112.416 22.8672C112.38 23.0555 112.322 23.1544 112.269 23.215C112.215 23.2764 112.114 23.3571 111.899 23.4376L112.14 24.4999C112.513 24.3601 112.851 24.1575 113.115 23.857C113.38 23.5557 113.519 23.2139 113.586 22.8672H112.416ZM111.926 23.4281L104.295 25.9459L104.482 27.0272L112.113 24.5094L111.926 23.4281ZM104.984 26.3807C104.984 25.9251 105.049 25.4288 105.154 24.8814H103.984C103.871 25.4671 103.794 26.0409 103.793 26.5924L104.984 26.3807ZM105.154 24.8814C105.445 23.369 106.098 22.0608 106.937 21.1473C107.767 20.2446 108.773 19.7279 109.855 19.7279L110.076 18.5791C108.562 18.5791 107.179 19.3212 106.113 20.48C105.058 21.6279 104.311 23.1837 103.984 24.8814H105.154ZM120.134 18.4611L120.023 19.0355H120.608L120.719 18.4611H120.134ZM119.892 19.72H120.477L120.587 19.1456H120.002L119.892 19.72ZM122.712 19.72L122.823 19.1456H122.238L122.127 19.72H122.712ZM122.954 18.4611H122.369L122.259 19.0355H122.844L122.954 18.4611ZM123.118 17.6113H123.703L123.714 17.5534L123.713 17.4966L123.118 17.6113ZM126.272 11.3798L126.153 11.9541L126.155 11.9542L126.272 11.3798ZM127.025 9.7983C125.186 9.7983 123.595 10.4161 122.378 11.5049C121.169 12.5858 120.393 14.0728 120.076 15.723H121.246C121.522 14.2889 122.174 13.1007 123.095 12.2776C124.006 11.4623 125.245 10.9471 126.804 10.9471L127.025 9.7983ZM120.076 15.723L119.549 18.4611H120.719L121.246 15.723H120.076ZM120.245 17.8867H117.584L117.363 19.0355H120.023L120.245 17.8867ZM117.584 17.8867C116.973 17.8867 116.427 18.3642 116.323 18.9017H117.493C117.483 18.9538 117.456 18.9871 117.434 19.0049C117.407 19.0277 117.378 19.0355 117.363 19.0355L117.584 17.8867ZM116.323 18.9017L116.245 19.3108H117.415L117.493 18.9017H116.323ZM116.245 19.3108C116.131 19.9011 116.566 20.2944 117.121 20.2944L117.342 19.1456C117.33 19.1456 117.354 19.1429 117.381 19.1721C117.408 19.2012 117.426 19.2513 117.415 19.3108H116.245ZM117.121 20.2944H119.781L120.002 19.1456H117.342L117.121 20.2944ZM119.307 19.72L117.073 31.3333H118.242L120.477 19.72H119.307ZM117.073 31.3333C117.039 31.5062 116.975 31.6112 116.909 31.6884C116.834 31.7762 116.731 31.8571 116.578 31.9556C116.465 32.0284 116.212 32.1757 116.043 32.3077C115.84 32.4664 115.588 32.7217 115.516 33.0957H116.686C116.671 33.1708 116.615 33.1979 116.68 33.1471C116.78 33.0695 116.868 33.0261 117.103 32.8746C117.298 32.7489 117.549 32.5722 117.768 32.3167C117.996 32.0506 118.167 31.7269 118.242 31.3333H117.073ZM115.516 33.0957L115.498 33.1901H116.667L116.686 33.0957H115.516ZM115.498 33.1901C115.448 33.4454 115.496 33.7089 115.687 33.8992C115.87 34.0804 116.128 34.1422 116.38 34.1422L116.601 32.9934C116.532 32.9934 116.566 32.9765 116.613 33.0239C116.637 33.0479 116.656 33.0797 116.664 33.1151C116.673 33.1493 116.67 33.1766 116.667 33.1901H115.498ZM116.38 34.1422H120.899L121.12 32.9934H116.601L116.38 34.1422ZM120.899 34.1422C121.148 34.1422 121.42 34.0742 121.661 33.908C121.911 33.7351 122.092 33.4783 122.148 33.1901H120.978C120.983 33.1616 120.997 33.1269 121.021 33.0919C121.044 33.0573 121.072 33.0318 121.096 33.0151C121.143 32.9827 121.16 32.9934 121.12 32.9934L120.899 34.1422ZM122.148 33.1901L122.166 33.0957H120.996L120.978 33.1901H122.148ZM122.166 33.0957C122.246 32.6815 122.033 32.4195 121.876 32.2764C121.735 32.148 121.509 32.0087 121.397 31.9299C121.112 31.7283 121.014 31.5868 121.063 31.3333H119.893C119.724 32.2127 120.235 32.6534 120.585 32.9004C120.79 33.0458 120.888 33.0973 120.978 33.1783C121.05 33.2447 120.974 33.211 120.996 33.0957H122.166ZM121.063 31.3333L123.297 19.72H122.127L119.893 31.3333H121.063ZM122.602 20.2944H127.057L127.278 19.1456H122.823L122.602 20.2944ZM127.057 20.2944C127.607 20.2944 128.171 19.8758 128.279 19.3108H127.11C127.133 19.1865 127.24 19.1456 127.278 19.1456L127.057 20.2944ZM128.279 19.3108L128.358 18.9017H127.188L127.11 19.3108H128.279ZM128.358 18.9017C128.456 18.3909 128.126 17.8867 127.52 17.8867L127.299 19.0355C127.249 19.0355 127.218 19.0131 127.203 18.9949C127.192 18.9807 127.179 18.9522 127.188 18.9017H128.358ZM127.52 17.8867H123.065L122.844 19.0355H127.299L127.52 17.8867ZM123.539 18.4611L123.703 17.6113H122.533L122.369 18.4611H123.539ZM123.713 17.4966C123.689 15.9168 123.923 14.4472 124.39 13.4083C124.621 12.8917 124.891 12.5241 125.174 12.2929C125.44 12.0755 125.752 11.9484 126.153 11.9541L126.391 10.8055C125.689 10.7955 125.049 11.0342 124.509 11.4758C123.986 11.9035 123.596 12.488 123.309 13.1279C122.737 14.4023 122.497 16.0642 122.523 17.7261L123.713 17.4966ZM126.155 11.9542C126.747 11.9607 126.957 12.1224 127.058 12.2672C127.184 12.449 127.221 12.7124 127.248 13.1222C127.272 13.474 127.285 14.0002 127.513 14.4071C127.775 14.8781 128.272 15.1329 129.043 15.1329L129.264 13.9841C128.786 13.9841 128.652 13.8456 128.585 13.7255C128.483 13.5413 128.466 13.2786 128.437 12.8397C128.412 12.4588 128.375 11.9294 128.085 11.5123C127.769 11.0582 127.219 10.8146 126.389 10.8055L126.155 11.9542ZM129.043 15.1329C130.167 15.1329 130.978 14.2772 131.136 13.457H129.966C129.942 13.5826 129.866 13.7156 129.753 13.8142C129.649 13.9045 129.492 13.9841 129.264 13.9841L129.043 15.1329ZM131.136 13.457C131.345 12.3733 130.89 11.4469 130.131 10.814C129.37 10.1793 128.263 9.7983 127.025 9.7983L126.804 10.9471C127.808 10.9471 128.684 11.2585 129.262 11.741C129.843 12.2254 130.085 12.8411 129.966 13.457H131.136Z" fill="#0152A8"/>
</svg>
