<svg width="24" height="24" viewBox="0 0 24 24" fill="none" xmlns="http://www.w3.org/2000/svg">
<circle cx="12" cy="12" r="12" fill="#0152A8" fill-opacity="0.12"/>
<path fill-rule="evenodd" clip-rule="evenodd" d="M12.7634 6.08482C12.7634 5.72161 13.0586 5.42377 13.42 5.46003C14.4887 5.56726 15.5185 5.93507 16.4171 6.5355C17.4986 7.25813 18.3415 8.28523 18.8392 9.48691C19.337 10.6886 19.4672 12.0109 19.2135 13.2866C18.9597 14.5623 18.3334 15.7341 17.4137 16.6538C16.4939 17.5736 15.3221 18.1999 14.0464 18.4537C12.7707 18.7074 11.4484 18.5772 10.2467 18.0794C9.04504 17.5817 8.01794 16.7388 7.29531 15.6573C6.74751 14.8374 6.39333 13.9084 6.25402 12.9402L5.13189 14.0624C4.839 14.3553 4.36413 14.3553 4.07123 14.0624C3.77834 13.7695 3.77834 13.2946 4.07123 13.0017L6.43781 10.6351C6.7307 10.3422 7.20558 10.3422 7.49847 10.6351L9.86504 13.0017C10.1579 13.2946 10.1579 13.7695 9.86504 14.0624C9.57215 14.3553 9.09728 14.3553 8.80438 14.0624L7.56674 12.8247C7.68503 13.5734 7.96425 14.291 8.38893 14.9265C8.96703 15.7917 9.78871 16.4661 10.7501 16.8643C11.7114 17.2625 12.7692 17.3667 13.7898 17.1637C14.8104 16.9607 15.7478 16.4596 16.4836 15.7238C17.2194 14.988 17.7205 14.0506 17.9235 13.03C18.1265 12.0094 18.0223 10.9516 17.6241 9.99025C17.2259 9.0289 16.5515 8.20723 15.6863 7.62912C15.0042 7.1733 14.2275 6.88506 13.4194 6.78351C13.059 6.73822 12.7634 6.44802 12.7634 6.08482ZM13.1758 8.84417C13.1758 8.42995 12.84 8.09417 12.4258 8.09417C12.0116 8.09417 11.6758 8.42995 11.6758 8.84417V12.5701C11.6758 12.8909 11.8772 13.1646 12.1604 13.2718L14.8152 14.4577C15.1934 14.6266 15.6369 14.457 15.8059 14.0788C15.9748 13.7006 15.8052 13.257 15.427 13.0881L13.1758 12.0825V8.84417Z" fill="#0152A8"/>
</svg>
