<svg width="120" height="120" viewBox="0 0 120 120" fill="none" xmlns="http://www.w3.org/2000/svg">
<path opacity="0.47" d="M9.99219 57.6511C23.0394 42.7099 39.793 29.731 57.0323 19.9535C67.1606 14.2091 84.3072 5.43816 89.7036 8.4803C92.0468 9.89895 96.2854 14.1797 94.4943 19.9535C88.0827 44.096 71.8165 63.919 60.4742 85.8424C57.5952 91.4072 54.6706 97.2247 53.0986 103.325C51.4527 109.713 56.659 107.489 60.5835 105.128C71.9798 98.274 81.1059 87.675 90.5231 78.4121C97.4485 71.6002 91.2195 87.7794 90.6323 89.6668C89.037 94.7948 84.6136 105.692 88.9933 110.646C92.603 114.729 99.2365 111.994 103.417 110.756" stroke="#DAD9EA" stroke-width="4.98037" stroke-linecap="round"/>
<path opacity="0.47" d="M100.648 57.3079C103.064 55.2639 103.967 52.8569 105.12 50.0127" stroke="#DAD9EA" stroke-width="4.98037" stroke-linecap="round"/>
<path opacity="0.47" d="M100.648 71.4277C102.17 71.5016 103.59 71.6001 105.028 72.1729C106.952 72.9395 108.18 74.2638 109.826 75.4283" stroke="#DAD9EA" stroke-width="4.98037" stroke-linecap="round"/>
<path opacity="0.47" d="M34.7272 64.1886C34.7272 66.062 34.4885 67.6249 35.3167 69.2812C35.7791 70.2061 37.3649 71.191 38.4288 71.191C39.5014 71.191 41.191 71.5074 42.154 71.0259C43.4134 70.3962 43.6061 69.521 44.3702 68.5386C44.7539 68.0452 44.6796 65.4292 44.3702 64.9431C43.9613 64.3005 42.5349 62.3262 41.7296 62.2789C40.4905 62.206 39.3162 61.8545 38.0044 61.8545C36.2233 61.8545 35.3638 62.83 35.3638 64.613" stroke="#DAD9EA" stroke-width="4.98037" stroke-linecap="round"/>
</svg>
